# xmcd CD database file
#
# Track frame offsets:
#	150
#	10285
#	22005
#	38275
#	49070
#	58722
#	69442
#	80375
#	93345
#	105275
#	120785
#	130472
#	140232
#	150765
#	160872
#	170882
#	181327
#	189930
#	203620
#	215620
#	228185
#	242105
#	251692
#	263857
#	274715
#	285920
#	295325
#	307297
#
# Disc length: 4223 seconds
#
# Revision: 3
# Processed by: cddbd v1.5.2PL0 Copyright (c) Steve Scherf et al.
# Submitted via: CDex 1.70beta2
#
DISCID=82107d1c
DTITLE=Alfred Jack - Soft Tunes
DYEAR=1990
DGENRE=New Age
TTITLE0=For Anna
TTITLE1=Ariane
TTITLE2=Medley: Once there was a love/I know yu will come back/On a bench
TTITLE3=Cote d'Azur
TTITLE4=Sympathy
TTITLE5=Two Carat
TTITLE6=Silver Clouds
TTITLE7=The night sings her tender song tonight
TTITLE8=Roses in October
TTITLE9=Medley: Air Fresh/Blue Day/Palace Hotel
TTITLE10=Capricciosa
TTITLE11=Hotel Flirt
TTITLE12=Moon Night at the don
TTITLE13=Friendship
TTITLE14=Gabriella
TTITLE15=Just one hour
TTITLE16=Excuse me, miss
TTITLE17=Medley: Anette
TTITLE18=Once there was a love
TTITLE19=Patience
TTITLE20=Medley: everyday is beautiful
TTITLE21=What you told me of love and faithfulness
TTITLE22=Medley: Tango on the night/the clock at zoo station
TTITLE23=A girlfriend as sweet as you
TTITLE24=The small town wants to go to sleep
TTITLE25=Under an umbrella in the evening
TTITLE26=Medley: i feel within me/the music is playing softly
TTITLE27=Casanova - song
EXTD=YEAR: 1990
EXTT0=
EXTT1=
EXTT2=
EXTT3=
EXTT4=
EXTT5=
EXTT6=
EXTT7=
EXTT8=
EXTT9=
EXTT10=
EXTT11=
EXTT12=
EXTT13=
EXTT14=
EXTT15=
EXTT16=
EXTT17=
EXTT18=
EXTT19=
EXTT20=
EXTT21=
EXTT22=
EXTT23=
EXTT24=
EXTT25=
EXTT26=
EXTT27=
PLAYORDER=
